# xmcd CD database file
#
# Track frame offsets:
#	150
#	41999
#	50759
#	82217
#	110106
#	147128
#	216770
#	240650
#	269759
#	322367
#
# Disc length: 4745 seconds
#
# Revision: 0
# Processed by: cddbd v1.5.2PL0 Copyright (c) Steve Scherf et al.
# Submitted via: CDex 1.70beta2
#
DISCID=aa12870a
DTITLE=Roland Kirk - LIVE IN LONDON
DYEAR=1964
DGENRE=Jazz
TTITLE0=Oleo
TTITLE1=Roland Kirk speaks
TTITLE2=The Business Ain't Nothin' But The Blues
TTITLE3=Domino
TTITLE4=On Green Dolphin Street:
TTITLE5=How Deep Is The Ocean?
TTITLE6=You Did It,You Did It
TTITLE7=Lover,Come Back To Me
TTITLE8=R.K.Blues
TTITLE9=Les Tomkins interviews Roland Kirk
EXTD=YEAR: 1964
EXTT0=
EXTT1=
EXTT2=
EXTT3=
EXTT4=
EXTT5=
EXTT6=
EXTT7=
EXTT8=
EXTT9=
PLAYORDER=
